<mxfile host="65bd71144e">
    <diagram id="xOIED18Rx3k3K53dRxWS" name="Page-1">
        <mxGraphModel dx="1146" dy="614" grid="1" gridSize="10" guides="1" tooltips="1" connect="1" arrows="1" fold="1" page="1" pageScale="1" pageWidth="827" pageHeight="1169" math="0" shadow="0">
            <root>
                <mxCell id="0"/>
                <mxCell id="1" parent="0"/>
                <mxCell id="wv5xHkp45SpE34J_YbF7-14" style="edgeStyle=none;html=1;entryX=1.019;entryY=0.088;entryDx=0;entryDy=0;entryPerimeter=0;" parent="1" source="wv5xHkp45SpE34J_YbF7-1" target="wv5xHkp45SpE34J_YbF7-5" edge="1">
                    <mxGeometry relative="1" as="geometry"/>
                </mxCell>
                <mxCell id="wv5xHkp45SpE34J_YbF7-1" value="bpm" style="rounded=1;whiteSpace=wrap;html=1;" parent="1" vertex="1">
                    <mxGeometry x="640" y="70" width="120" height="60" as="geometry"/>
                </mxCell>
                <mxCell id="wv5xHkp45SpE34J_YbF7-15" style="edgeStyle=none;html=1;entryX=1.006;entryY=0.353;entryDx=0;entryDy=0;entryPerimeter=0;" parent="1" source="wv5xHkp45SpE34J_YbF7-2" target="wv5xHkp45SpE34J_YbF7-5" edge="1">
                    <mxGeometry relative="1" as="geometry"/>
                </mxCell>
                <mxCell id="wv5xHkp45SpE34J_YbF7-2" value="beat" style="rounded=1;whiteSpace=wrap;html=1;" parent="1" vertex="1">
                    <mxGeometry x="640" y="160" width="120" height="60" as="geometry"/>
                </mxCell>
                <mxCell id="wv5xHkp45SpE34J_YbF7-16" style="edgeStyle=none;html=1;entryX=1;entryY=0.647;entryDx=0;entryDy=0;entryPerimeter=0;" parent="1" source="wv5xHkp45SpE34J_YbF7-3" target="wv5xHkp45SpE34J_YbF7-5" edge="1">
                    <mxGeometry relative="1" as="geometry"/>
                </mxCell>
                <mxCell id="wv5xHkp45SpE34J_YbF7-3" value="beat duration" style="rounded=1;whiteSpace=wrap;html=1;" parent="1" vertex="1">
                    <mxGeometry x="640" y="260" width="120" height="60" as="geometry"/>
                </mxCell>
                <mxCell id="wv5xHkp45SpE34J_YbF7-17" style="edgeStyle=none;html=1;entryX=1.019;entryY=0.912;entryDx=0;entryDy=0;entryPerimeter=0;" parent="1" source="wv5xHkp45SpE34J_YbF7-4" target="wv5xHkp45SpE34J_YbF7-5" edge="1">
                    <mxGeometry relative="1" as="geometry">
                        <Array as="points">
                            <mxPoint x="530" y="380"/>
                        </Array>
                    </mxGeometry>
                </mxCell>
                <mxCell id="wv5xHkp45SpE34J_YbF7-4" value="sample" style="rounded=1;whiteSpace=wrap;html=1;" parent="1" vertex="1">
                    <mxGeometry x="640" y="350" width="120" height="60" as="geometry"/>
                </mxCell>
                <mxCell id="wv5xHkp45SpE34J_YbF7-21" style="edgeStyle=none;html=1;entryX=1;entryY=0.5;entryDx=0;entryDy=0;" parent="1" source="wv5xHkp45SpE34J_YbF7-5" target="wv5xHkp45SpE34J_YbF7-19" edge="1">
                    <mxGeometry relative="1" as="geometry"/>
                </mxCell>
                <mxCell id="wv5xHkp45SpE34J_YbF7-5" value="USE CASES&lt;br&gt;" style="rounded=1;whiteSpace=wrap;html=1;" parent="1" vertex="1">
                    <mxGeometry x="360" y="70" width="160" height="340" as="geometry"/>
                </mxCell>
                <mxCell id="wv5xHkp45SpE34J_YbF7-22" style="edgeStyle=none;html=1;entryX=0.5;entryY=1;entryDx=0;entryDy=0;" parent="1" source="wv5xHkp45SpE34J_YbF7-18" target="wv5xHkp45SpE34J_YbF7-5" edge="1">
                    <mxGeometry relative="1" as="geometry"/>
                </mxCell>
                <mxCell id="wv5xHkp45SpE34J_YbF7-18" value="metronom&lt;br&gt;" style="rounded=1;whiteSpace=wrap;html=1;" parent="1" vertex="1">
                    <mxGeometry x="380" y="555" width="120" height="60" as="geometry"/>
                </mxCell>
                <mxCell id="wv5xHkp45SpE34J_YbF7-19" value="UI&lt;br&gt;" style="rounded=1;whiteSpace=wrap;html=1;" parent="1" vertex="1">
                    <mxGeometry y="70" width="170" height="330" as="geometry"/>
                </mxCell>
            </root>
        </mxGraphModel>
    </diagram>
    <diagram id="zMv1JqtM7GAnANthtaIj" name="Page-2">
        <mxGraphModel dx="1146" dy="790" grid="1" gridSize="10" guides="1" tooltips="1" connect="1" arrows="1" fold="1" page="1" pageScale="1" pageWidth="827" pageHeight="1169" math="0" shadow="0">
            <root>
                <mxCell id="eQK2zfOMkIXqvkybpA7O-0"/>
                <mxCell id="eQK2zfOMkIXqvkybpA7O-1" parent="eQK2zfOMkIXqvkybpA7O-0"/>
            </root>
        </mxGraphModel>
    </diagram>
</mxfile>